# xmcd CD database file
#
# Track frame offsets:
#	150
#	27665
#	38757
#	49297
#	84385
#	100155
#	110037
#	128265
#
# Disc length: 2273 seconds
#
# Revision: 0
# Processed by: cddbd v1.4PL0 Copyright (c) Steve Scherf et al.
# Submitted via: Feurio! 1.66 - http://www.feurio.com
#
DISCID=6108df08
DTITLE=Dias De Blues - Dias De Blues
DYEAR=1972
DGENRE=Blues
TTITLE0=Amasijando Los Blues
TTITLE1=Dame Tu Sonrisa Loco
TTITLE2=No Podran Conmigo
TTITLE3=Cada Hombre Es Un Camino
TTITLE4=Estan Desubicados
TTITLE5=esto Es Nuestro
TTITLE6=Vuela
TTITLE7=Toda Tu Vida
EXTD=
EXTT0=
EXTT1=
EXTT2=
EXTT3=
EXTT4=
EXTT5=
EXTT6=
EXTT7=
PLAYORDER=
